PathFileType	4	(X/Y/Z)	C:/Users/opensim2020/Desktop/walking_exp_matlab/subject03_walking10_straight_02.trc																																																																																																																																					
DataRate	CameraRate	NumFrames	NumMarkers	Units	OrigDataRate	OrigDataStartFrame	OrigNumFrames																																																																																																																																	
100	100	6	45	mm	100	1945	347																																																																																																																																	
Frame#	Time	LFHD			RFHD			LBHD			RBHD			C7			T10			CLAV			STRN			RBAK			LSHO			LUPA			LELB			LFRM			LWRA			LWRB			LFIN			RSHO			RUPA			RELB			RFRM			RWRA			RWRB			RFIN			LASI			RASI			LPSI			RPSI			LTHI			LKNE			LTIB			LANK			LHEE			LTOE			RTHI			RKNE			RTIB			RANK			RHEE			RTOE			*39			*40			*41			*42			*43			*44		
		X1	Y1	Z1	X2	Y2	Z2	X3	Y3	Z3	X4	Y4	Z4	X5	Y5	Z5	X6	Y6	Z6	X7	Y7	Z7	X8	Y8	Z8	X9	Y9	Z9	X10	Y10	Z10	X11	Y11	Z11	X12	Y12	Z12	X13	Y13	Z13	X14	Y14	Z14	X15	Y15	Z15	X16	Y16	Z16	X17	Y17	Z17	X18	Y18	Z18	X19	Y19	Z19	X20	Y20	Z20	X21	Y21	Z21	X22	Y22	Z22	X23	Y23	Z23	X24	Y24	Z24	X25	Y25	Z25	X26	Y26	Z26	X27	Y27	Z27	X28	Y28	Z28	X29	Y29	Z29	X30	Y30	Z30	X31	Y31	Z31	X32	Y32	Z32	X33	Y33	Z33	X34	Y34	Z34	X35	Y35	Z35	X36	Y36	Z36	X37	Y37	Z37	X38	Y38	Z38	X39	Y39	Z39	X40	Y40	Z40	X41	Y41	Z41	X42	Y42	Z42	X43	Y43	Z43	X44	Y44	Z44	X45	Y45	Z45
																																																																																																																																								
131	1.3	-168.66681	1611.17029	983.69769	-192.69762	1606.49817	1114.55994	-300.59613	1590.22107	962.08643	-319.45947	1584.48315	1091.88379	-361.73425	1420.94446	1014.25372	-402.93442	1105.6781	1013.02283	-244.60948	1339.90784	1017.15143	-202.1405	1175.80298	1008.1145	-421.62799	1241.09119	1108.0498	-282.92758	1378.72815	860.40125	-287.49545	1180.44202	791.04443	-278.62488	1056.58923	782.35126	-249.32368	929.53412	785.172	-227.63307	812.81683	818.0249	-249.92369	815.96899	766.32104	-236.95287	731.58179	780.18024	-291.96481	1359.79004	1176.04773	-286.38315	1135.26013	1244.51587	-267.70425	1023.60236	1255.05762	-248.99408	887.8916	1254.01196	-220.58554	792.93945	1216.10779	-248.37463	787.62628	1261.97119	-226.25826	716.27362	1249.46497	-242.4332	936.82666	891.85291	-233.92247	941.47174	1130.08923	-402.63278	958.41357	946.70844	-396.30783	973.22772	1095.50977	-277.33255	634.65424	834.31055	-253.291	456.24655	848.7713	-405.32635	329.7583	856.55194	-550.30902	183.71144	901.21344	-598.7876	185.83946	946.2832	-478.1749	52.77264	904.51733	-279.49091	647.53705	1165.00098	-252.424	468.41141	1125.7301	-288.33957	281.1976	1123.45886	-301.53571	67.24302	1067.03394	-341.87378	35.58603	1013.34296	-158.2782	32.33878	1060.59692	-248.22935	1681.49426	1035.31018	NaN	NaN	NaN	NaN	NaN	NaN	NaN	NaN	NaN	NaN	NaN	NaN	NaN	NaN	NaN
132	1.31	-161.05157	1611.09241	984.08337	-184.73396	1606.41907	1114.87122	-293.18387	1590.44983	962.78204	-311.63129	1584.71411	1092.60754	-354.60895	1421.2262	1015.37427	-396.172	1105.97827	1014.3476	-237.47859	1340.12463	1017.66492	-195.32684	1175.89233	1008.67059	-414.33835	1241.49695	1109.42944	-277.01465	1378.9552	861.06311	-282.79733	1180.48914	791.80457	-274.31125	1056.65186	783.11475	-246.19279	929.37396	785.26563	-225.68253	812.20868	817.19354	-248.30962	815.99249	765.73749	-235.7677	731.5155	778.43286	-284.00104	1360.16284	1176.7356	-276.51483	1135.85754	1245.47437	-256.78625	1024.39368	1256.05042	-237.12112	888.83478	1255.34424	-208.53783	794.01648	1217.34167	-235.65012	788.65271	1263.66394	-212.8035	717.62476	1251.40735	-235.50084	937.65411	892.95154	-227.01057	941.55042	1131.24622	-395.96448	958.68677	948.05884	-389.28403	973.06622	1096.8396	-265.9696	635.55865	835.36017	-238.24565	457.70807	849.51251	-388.73282	329.78098	856.95514	-532.33643	182.17722	901.12207	-581.61249	183.09021	945.96979	-456.90967	53.17578	904.76251	-273.70535	647.22607	1166.02136	-248.09621	468.14395	1126.0365	-285.7413	281.13208	1123.60461	-301.32379	67.39586	1066.95972	-341.81281	35.81604	1013.32635	-158.16475	32.25434	1060.50586	NaN	NaN	NaN	NaN	NaN	NaN	NaN	NaN	NaN	NaN	NaN	NaN	NaN	NaN	NaN	NaN	NaN	NaN
133	1.32	-153.51358	1610.82788	984.27148	-176.76071	1606.2417	1115.17871	-285.71683	1590.77466	963.4538	-303.82339	1585.09167	1093.32239	-347.6792	1421.49927	1016.53534	-389.3205	1106.24829	1015.67261	-230.53406	1340.29114	1018.11371	-188.62381	1176.09595	1009.23773	-407.03809	1241.94531	1110.80408	-270.95456	1379.23853	861.73724	-278.22705	1180.78882	792.50079	-270.14322	1057.00244	783.70477	-243.0789	929.46301	785.0766	-223.45451	811.88074	816.22083	-246.49817	816.31921	764.97699	-234.18828	731.80859	776.65546	-276.19138	1360.55859	1177.35889	-266.7298	1136.55627	1246.32837	-245.85112	1025.26221	1256.78345	-225.25179	889.99701	1256.62	-196.31642	795.34271	1218.66089	-222.9494	789.79504	1265.23962	-199.34718	719.11615	1253.28687	-228.41066	938.65753	893.94232	-219.98997	941.59192	1132.57715	-389.17041	959.01257	949.39716	-382.30991	972.94061	1098.09082	-254.65324	636.52838	836.63409	-223.43797	459.25519	850.49554	-371.79694	329.30865	857.42963	-513.74219	179.64218	901.02899	-563.59631	179.14926	945.2345	-434.42224	53.58642	905.20215	-267.35492	646.82965	1166.10767	-243.85796	467.83673	1126.29785	-283.31558	281.14481	1123.79468	-301.12439	67.58964	1066.86841	-341.75415	36.12274	1013.34729	-158.07942	32.18094	1060.41895	NaN	NaN	NaN	NaN	NaN	NaN	NaN	NaN	NaN	NaN	NaN	NaN	NaN	NaN	NaN	NaN	NaN	NaN
134	1.33	-145.96007	1610.52014	984.40991	-168.7796	1606.0592	1115.37341	-278.44727	1591.23059	964.05127	-295.99109	1585.5166	1093.93982	-340.73563	1421.81665	1017.55341	-382.57123	1106.53369	1017.00092	-223.64389	1340.52209	1018.48608	-181.88391	1176.26978	1009.84644	-399.78922	1242.37012	1112.18469	-265.05878	1379.54956	862.40686	-273.71249	1181.0946	793.12103	-266.34509	1057.42139	784.20093	-239.99326	929.73242	784.78259	-220.80435	811.79694	815.2475	-244.35352	816.76324	764.27753	-232.22632	732.30023	775.10626	-268.62112	1361.11926	1177.95068	-257.05859	1137.4093	1247.15051	-235.09471	1026.36426	1257.66772	-213.38426	891.28302	1257.85168	-184.03755	796.70795	1219.91541	-210.12048	791.25793	1266.86633	-185.905	720.763	1255.07776	-221.83476	939.44568	895.19623	-213.166	941.59003	1133.58228	-382.41531	959.34039	950.61542	-375.25491	972.85968	1099.375	-243.80621	637.46552	837.95551	-208.90152	460.97171	851.7428	-354.66608	328.29327	857.93719	-494.55637	176.20528	900.8949	-545.03796	174.26509	944.56329	-411.15625	52.92239	907.05084	-261.65735	646.78906	1166.98206	-239.83949	467.55252	1126.56189	-281.05939	281.13165	1123.9519	-300.92029	67.79668	1066.75134	-341.71066	36.51469	1013.33673	-157.95462	32.12222	1060.36157	NaN	NaN	NaN	NaN	NaN	NaN	NaN	NaN	NaN	NaN	NaN	NaN	NaN	NaN	NaN	NaN	NaN	NaN
135	1.34	-138.54747	1610.24683	984.35468	-160.75632	1605.77185	1115.47791	-270.95642	1591.55811	964.55585	-288.19208	1586.07556	1094.54688	-333.88956	1422.12549	1018.31201	-375.80243	1106.75073	1018.3407	-216.88802	1340.71191	1018.94855	-175.17807	1176.46362	1010.41766	-392.52335	1242.74463	1113.58374	-259.15256	1379.84607	863.03705	-269.24307	1181.3999	793.69873	-262.3363	1057.79468	784.40552	-236.85455	930.01099	784.38507	-218.08218	811.92627	814.37659	-241.96223	817.26599	763.58655	-230.03189	732.79828	773.76312	-261.10529	1361.73242	1178.51147	-247.53865	1138.30786	1247.98376	-224.57132	1027.66919	1258.72217	-201.56789	892.67395	1259.08069	-171.67426	798.19983	1221.25964	-197.29343	792.64532	1268.43372	-172.42078	722.41278	1256.78259	-215.19525	940.23254	896.36963	-205.82629	941.84338	1134.52954	-375.52664	959.74536	951.88995	-368.2998	972.83856	1100.54773	-232.08231	638.60687	838.68817	-194.54883	462.74612	853.17358	-337.31085	326.83401	858.49481	-474.65564	171.95351	901.02094	-525.77618	168.32698	943.93561	-386.70673	52.14277	909.06262	-255.90047	646.62793	1167.52954	-236.00081	467.29303	1126.93555	-278.94128	281.20285	1124.1062	-300.94431	68.03778	1066.71655	-341.60068	36.85833	1013.297	-157.86711	32.05301	1060.34497	-215.7484	1684.88025	1027.56311	NaN	NaN	NaN	NaN	NaN	NaN	NaN	NaN	NaN	NaN	NaN	NaN	NaN	NaN	NaN
136	1.35	-130.94228	1609.40271	984.33789	-152.75966	1605.44507	1115.57446	-263.625	1591.9812	964.98517	-280.46368	1586.7345	1095.06042	-327.16071	1422.34741	1019.42719	-369.04623	1106.93921	1019.69464	-210.18507	1340.94006	1019.3136	-168.42491	1176.68604	1010.92773	-385.2977	1243.11633	1115.10266	-253.35957	1380.11963	863.6665	-264.8089	1181.76978	794.15295	-258.74863	1058.04456	784.49475	-233.50279	930.30151	783.94897	-215.00696	812.01892	813.53735	-239.29518	817.69763	762.90222	-227.49849	733.21899	772.52686	-253.7243	1362.39026	1179.06055	-238.1729	1139.23804	1248.83691	-214.00833	1028.82617	1259.63708	-189.79256	894.10114	1260.28333	-159.21646	799.81091	1222.57446	-184.57561	794.20416	1269.9115	-158.97708	724.12769	1258.42322	-208.42224	941.02728	897.51282	-199.57256	941.89166	1135.3573	-368.80527	960.18817	952.86969	-361.35117	972.93109	1101.66809	-221.10828	639.81586	839.89386	-180.545	464.49017	855.008	-320.03812	325.07245	859.18536	-454.0401	166.96461	901.21973	-505.84766	161.47603	943.40332	-361.52402	51.18885	911.22888	-250.2504	646.40845	1168.05811	-232.28761	467.04291	1127.34094	-276.86963	281.24442	1124.28137	-300.76697	68.43053	1066.78088	-341.56158	37.25978	1013.30676	-157.79077	31.97653	1060.32739	-208.07207	1681.71582	1036.66418	NaN	NaN	NaN	NaN	NaN	NaN	NaN	NaN	NaN	NaN	NaN	NaN	NaN	NaN	NaN
